<?xml version="1.0" encoding="UTF-8"?>
<svg width="22px" height="22px" viewBox="0 0 22 22" version="1.1" xmlns="http://www.w3.org/2000/svg" xmlns:xlink="http://www.w3.org/1999/xlink">
    <!-- Generator: Sketch 49.2 (51160) - http://www.bohemiancoding.com/sketch -->
    <title>ic-cog</title>
    <desc>Created with Sketch.</desc>
    <defs></defs>
    <g id="ic-cog" stroke="none" stroke-width="1" fill="none" fill-rule="evenodd">
        <path d="M11,15 C8.791,15 7,13.209 7,11 C7,8.791 8.791,7 11,7 C13.209,7 15,8.791 15,11 C15,13.209 13.209,15 11,15 M21,10 L18.931,10 C18.748,8.541 18.174,7.206 17.314,6.1 L18.778,4.636 C19.169,4.246 19.169,3.612 18.778,3.222 C18.388,2.831 17.754,2.831 17.363,3.222 L15.9,4.686 C14.795,3.826 13.459,3.252 12,3.069 L12,1 C12,0.447 11.553,0 11,0 C10.447,0 10,0.447 10,1 L10,3.069 C8.541,3.252 7.205,3.826 6.1,4.686 L4.637,3.222 C4.246,2.831 3.612,2.831 3.222,3.222 C2.831,3.612 2.831,4.246 3.222,4.636 L4.686,6.1 C3.826,7.206 3.252,8.541 3.069,10 L1,10 C0.447,10 0,10.447 0,11 C0,11.553 0.447,12 1,12 L3.069,12 C3.252,13.459 3.826,14.794 4.686,15.9 L3.222,17.364 C2.831,17.754 2.831,18.388 3.222,18.778 C3.612,19.169 4.246,19.169 4.637,18.778 L6.1,17.314 C7.205,18.174 8.541,18.748 10,18.931 L10,21 C10,21.553 10.447,22 11,22 C11.553,22 12,21.553 12,21 L12,18.931 C13.459,18.748 14.795,18.174 15.9,17.314 L17.363,18.778 C17.754,19.169 18.388,19.169 18.778,18.778 C19.169,18.388 19.169,17.754 18.778,17.364 L17.314,15.9 C18.174,14.794 18.748,13.459 18.931,12 L21,12 C21.553,12 22,11.553 22,11 C22,10.447 21.553,10 21,10" id="Page-1" fill="#A3BECC"></path>
    </g>
</svg>