<?xml version="1.0" encoding="UTF-8"?>
<svg width="25px" height="31px" viewBox="0 0 25 31" version="1.1" xmlns="http://www.w3.org/2000/svg" xmlns:xlink="http://www.w3.org/1999/xlink">
    <!-- Generator: Sketch 49.2 (51160) - http://www.bohemiancoding.com/sketch -->
    <title>ic-mappin</title>
    <desc>Created with Sketch.</desc>
    <defs></defs>
    <g id="ic-mappin" stroke="none" stroke-width="1" fill="none" fill-rule="evenodd">
        <g id="ic-map" fill-rule="nonzero">
            <path d="M12.5,0 L12.1,0 L12.2,2 L12.5,2 C18,2 22.6,6.5 22.6,12 C22.6,18.6 17,25.9 13,28.5 L10.7,30 C11.3,30.4 11.9,30.8 12.5,31 C17,29 24.5,20 24.5,12 C24.5,5.4 19.1,0 12.5,0 Z" id="Shape" fill="#18AAF2"></path>
            <path d="M12.5,2 C7,2 2.4,6.5 2.4,12 C2.4,18.6 7.9,25.9 11.9,28.5 L14.3,30 C13.7,30.4 13.1,30.8 12.5,31 C8,29 0.5,20 0.5,12 C0.5,5.4 5.9,0 12.5,0 L12.5,2 Z" id="Shape" fill="#B0E645"></path>
            <path d="M12.4,28.9 L10.7,30 C10.9,30.2 11.2,30.3 11.4,30.4 C11.8,30.6 12.1,30.8 12.5,31 C13.1,30.8 13.6,30.4 14.3,30 L12.4,28.9 Z" id="Shape" fill="#0F993D"></path>
            <path d="M12.5,9 C13.6,9 14.5,9.9 14.5,11 C14.5,12.1 13.6,13 12.5,13 C11.4,13 10.5,12.1 10.5,11 C10.5,9.9 11.4,9 12.5,9 Z M12.5,7 C10.3,7 8.5,8.8 8.5,11 C8.5,13.2 10.3,15 12.5,15 C14.7,15 16.5,13.2 16.5,11 C16.5,8.8 14.7,7 12.5,7 Z" id="Shape" fill="#B0E645"></path>
            <circle id="Oval" fill="#0F993D" cx="12.5" cy="1" r="1"></circle>
            <circle id="Oval" fill="#0F993D" cx="12.5" cy="8" r="1"></circle>
            <circle id="Oval" fill="#0F993D" cx="12.5" cy="14" r="1"></circle>
        </g>
    </g>
</svg>