<svg width="28" height="28" xmlns="http://www.w3.org/2000/svg"><g fill="none" fill-rule="evenodd"><path d="M14 0h12a2 2 0 0 1 2 2v20a2 2 0 0 1-2 2H14a2 2 0 0 1-2-2V2a2 2 0 0 1 2-2zm0 2v20h12V2H14zm5 16h2a1 1 0 0 1 0 2h-2a1 1 0 0 1 0-2z" fill="#18AAF2" fill-rule="nonzero"/><path d="M2 4h12a2 2 0 0 1 2 2v20a2 2 0 0 1-2 2H2a2 2 0 0 1-2-2V6a2 2 0 0 1 2-2zm0 2v20h12V6H2zm5 16h2a1 1 0 0 1 0 2H7a1 1 0 0 1 0-2z" fill="#B0E645" fill-rule="nonzero"/><path fill="#109941" d="M12 4h2v2h-2zM14 22h2v2h-2z"/></g></svg>