<svg xmlns="http://www.w3.org/2000/svg" viewBox="0 0 32 32"><path fill="#18AAF2" d="M5 17.9c-1.7-.4-3-2-3-3.9s1.3-3.4 3-3.9c.1-.7.2-1.4.4-2.1-3 .3-5.4 2.9-5.4 6 0 3 2.2 5.5 5.1 5.9-.1-.4-.1-.9-.1-1.4v-.6zM32 14c0-3.1-2.4-5.7-5.4-6 .2.7.3 1.4.4 2.1 1.7.4 3 2 3 3.9s-1.3 3.4-3 3.9v.6c0 .5 0 1-.1 1.4C29.8 19.5 32 17 32 14z"/><path fill="#B0E645" d="M24.9 10c0 .3.1.7.1 1v7h1c.3 0 .7-.1 1-.1V11v-.9c-.3-.1-.6-.1-1-.1h-1.1zM7.5 8c1.2-3.5 4.6-6 8.5-6 3.9 0 7.2 2.5 8.5 6h2.1C25.3 3.4 21 0 16 0S6.7 3.4 5.4 8h2.1zM24.9 20c-.5 3.2-2.8 5.9-5.8 6.9.2.5.4 1 .4 1.6v.4c4-1.3 6.9-4.8 7.5-9-.4.1-.7.1-1 .1h-1.1zM7.1 10H6c-.3 0-.6.1-1 .1V17.9c.3 0 .7.1 1 .1h1v-7c0-.3 0-.7.1-1z"/><path fill="#0F993D" d="M6 10h1.1c.1-.7.2-1.4.5-2H5.4c-.2.7-.3 1.4-.4 2.1.4 0 .7-.1 1-.1zM7 20v-2H6c-.3 0-.7-.1-1-.1v.6c0 .5 0 1 .1 1.4.3.1.6.1.9.1h1zM27 17.9c-.3.1-.7.1-1 .1h-1v.5c0 .5-.1 1-.1 1.5H26c.3 0 .6 0 .9-.1.1-.4.1-.9.1-1.4v-.6zM24.5 8c.2.6.4 1.3.5 2h1c.3 0 .6.1 1 .1-.1-.7-.2-1.4-.4-2.1h-2.1zM19.1 26.9c-.7.2-1.4.4-2.1.5.3.3.5.7.5 1.1 0 .4-.1.7-.3.9.8-.1 1.6-.3 2.3-.5v-.4c0-.6-.2-1.1-.4-1.6z"/><path fill="#18AAF2" d="M17.1 29.4c-.2.4-.6.6-1.1.6-.5 0-.9-.2-1.2-.6-.2-.3-.3-.6-.3-.9 0-.4.2-.8.5-1.1.3-.2.6-.4 1-.4s.8.2 1 .4c.7-.1 1.4-.3 2.1-.5-.6-1.1-1.8-1.9-3.1-1.9-1.4 0-2.5.8-3.1 1.9-.2.5-.4 1-.4 1.6v.4c.2 1.7 1.7 3.1 3.4 3.1 1.8 0 3.2-1.3 3.4-3.1-.6.3-1.4.5-2.2.5z"/></svg>