<?xml version="1.0" encoding="UTF-8"?>
<svg width="108px" height="30px" viewBox="0 0 108 30" version="1.1" xmlns="http://www.w3.org/2000/svg" xmlns:xlink="http://www.w3.org/1999/xlink">
    <!-- Generator: Sketch 49.2 (51160) - http://www.bohemiancoding.com/sketch -->
    <title>logo-sidebar-grey</title>
    <desc>Created with Sketch.</desc>
    <defs>
        <polygon id="path-1" points="0.0356494831 0.112 13.2456984 0.112 13.2456984 13.9139048 0.0356494831 13.9139048"></polygon>
    </defs>
    <g id="logo-sidebar-grey" stroke="none" stroke-width="1" fill="none" fill-rule="evenodd" opacity="0.75">
        <g id="Odrex-/-Logo">
            <g id="logo">
                <g id="Group-13" transform="translate(0.000000, 0.341310)">
                    <path d="M18.9800443,9.59402381 L9.49002217,9.59402381 L9.49002217,0.665452381 C9.49002217,0.336761905 9.75562417,0.0702142857 10.0831486,0.0702142857 L18.386918,0.0702142857 C18.7144424,0.0702142857 18.9800443,0.336761905 18.9800443,0.665452381 L18.9800443,9.59402381 Z" id="Fill-1" fill="#A3BECC"></path>
                    <path d="M27.8769401,19.1178333 L18.9800443,19.1178333 L18.9800443,9.59402381 L27.8769401,9.59402381 C28.2044645,9.59402381 28.4700665,9.86057143 28.4700665,10.1892619 L28.4700665,18.5225952 C28.4700665,18.8512857 28.2044645,19.1178333 27.8769401,19.1178333" id="Fill-3" fill="#A3BECC"></path>
                    <path d="M9.49002217,19.1178333 L0.593126386,19.1178333 C0.265601996,19.1178333 0,18.8512857 0,18.5225952 L0,10.1892619 C0,9.86057143 0.265601996,9.59402381 0.593126386,9.59402381 L9.49002217,9.59402381 L9.49002217,19.1178333 Z" id="Fill-5" fill="#A3BECC"></path>
                    <path d="M16.0144124,28.6416429 L10.0831486,28.6416429 C9.75562417,28.6416429 9.49002217,28.3752143 9.49002217,28.0464048 L9.49002217,19.1178333 L18.9800443,19.1178333 L18.9800443,25.6654524 C18.9800443,27.3091429 17.6522716,28.6416429 16.0144124,28.6416429" id="Fill-7" fill="#A3BECC"></path>
                    <path d="M13.5054404,6.47466667 L9.48997472,9.61788095 L9.48997472,19.117881 L18.9799969,19.117881 L18.9799969,9.61788095 L14.9646499,6.47466667 C14.5358195,6.13895238 13.9342707,6.13895238 13.5054404,6.47466667" id="Fill-9" fill="#F2F8FA"></path>
                    <path d="M13.8884814,8.53492857 L11.2693539,10.4273095 L11.2693539,17.3320714 L17.2006177,17.3320714 L17.2006177,10.4273095 L14.5816089,8.53492857 C14.3746078,8.38540476 14.0954825,8.38540476 13.8884814,8.53492857" id="Fill-11" fill="#A3BECC"></path>
                </g>
                <g id="Group-25" transform="translate(34.519956, 0.103214)">
                    <path d="M15.7188931,9.87444048 C15.7188931,6.30253571 13.4409319,3.61646429 9.93852062,3.61646429 C6.43634656,3.61646429 4.18685543,6.30253571 4.18685543,9.87444048 C4.18685543,13.4177738 6.43634656,16.1324167 9.93852062,16.1324167 C13.4409319,16.1324167 15.7188931,13.4177738 15.7188931,9.87444048 M0.0296325942,9.87444048 C0.0296325942,4.13075 4.2153255,0.0158690476 9.93852062,0.0158690476 C15.6904231,0.0158690476 19.876116,4.13075 19.876116,9.87444048 C19.876116,15.618131 15.6904231,19.7330119 9.93852062,19.7330119 C4.2153255,19.7330119 0.0296325942,15.618131 0.0296325942,9.87444048" id="Fill-14" fill="#A3BECC"></path>
                    <path d="M31.1638093,14.9322857 L31.1638093,10.0459762 C30.5658193,9.13145238 29.255959,8.47430952 28.0316275,8.47430952 C25.9814268,8.47430952 24.5578049,10.103119 24.5578049,12.5033571 C24.5578049,14.8752619 25.9814268,16.5040714 28.0316275,16.5040714 C29.255959,16.5040714 30.5658193,15.8466905 31.1638093,14.9322857 M31.1638093,18.7949048 L31.1638093,17.6184762 C30.0817095,18.9900238 28.5725588,19.733 26.9210576,19.733 C23.447235,19.733 20.827633,17.1040714 20.827633,12.5033571 C20.827633,7.98847619 23.4188836,5.2452619 26.9210576,5.2452619 C28.5440887,5.2452619 30.0817095,5.95966667 31.1638093,7.35990476 L31.1638093,2.11597619 C31.1638093,1.12966667 31.9604967,0.330261905 32.9431885,0.330261905 L34.2154446,0.330261905 C34.5428503,0.330261905 34.808571,0.596690476 34.808571,0.9255 L34.808571,18.7949048 C34.808571,19.1235952 34.5428503,19.3901429 34.2154446,19.3901429 L31.7569357,19.3901429 C31.4292927,19.3901429 31.1638093,19.1235952 31.1638093,18.7949048" id="Fill-16" fill="#A3BECC"></path>
                    <path d="M37.2997729,18.794881 L37.2997729,6.18333333 C37.2997729,5.85464286 37.5653749,5.58809524 37.8928993,5.58809524 L40.3228195,5.58809524 C40.6503439,5.58809524 40.9159459,5.85464286 40.9159459,6.18333333 L40.9159459,7.47416667 C41.7561687,6.4077381 43.1541676,5.51345238 44.6258328,5.29583333 C44.9821831,5.24321429 45.3010479,5.52464286 45.3010479,5.88607143 L45.3010479,8.11797619 C45.3010479,8.45833333 45.0178894,8.73011905 44.6793328,8.7122619 C44.5613007,8.70595238 44.4359137,8.70297619 44.3044769,8.70297619 C43.1084969,8.70297619 41.5138173,9.38869048 40.9159459,10.2745238 L40.9159459,17.6044048 C40.9159459,18.5905952 40.1193772,19.390119 39.1365667,19.390119 L37.8928993,19.390119 C37.5653749,19.390119 37.2997729,19.1235714 37.2997729,18.794881" id="Fill-18" fill="#A3BECC"></path>
                    <path d="M52.6609397,8.13133333 C50.4114486,8.13133333 49.4434663,9.81740476 49.2725273,11.1888333 L56.0493521,11.1888333 C55.9639419,9.87442857 55.0527812,8.13133333 52.6609397,8.13133333 M45.5423554,12.4747857 C45.5423554,8.47430952 48.4752468,5.2452619 52.6609397,5.2452619 C56.7612224,5.2452619 59.5516448,8.33145238 59.5516448,12.8463333 L59.5516448,13.0510952 C59.5516448,13.3797857 59.2861614,13.6463333 58.9585184,13.6463333 L49.3294674,13.6463333 C49.5573466,15.3895476 50.9524984,16.8468095 53.2872812,16.8468095 C54.2706847,16.8468095 55.5773421,16.4819286 56.4925361,15.8545476 C56.765137,15.6675238 57.1357224,15.7325238 57.3218455,16.0060952 L58.2497324,17.3697857 C58.4276703,17.6312143 58.372984,17.9899048 58.1200749,18.1790714 C56.7538676,19.2010952 54.8098366,19.733 52.8888188,19.733 C48.7030073,19.733 45.5423554,16.9040714 45.5423554,12.4747857" id="Fill-20" fill="#A3BECC"></path>
                    <g id="Group-24" transform="translate(59.194013, 5.476190)">
                        <mask id="mask-2" fill="white">
                            <use xlink:href="#path-1"></use>
                        </mask>
                        <g id="Clip-23"></g>
                        <path d="M9.60030809,13.6516429 L6.64452206,9.25604762 L3.66050322,13.6536667 C3.54994446,13.8165238 3.36643115,13.9139048 3.17022494,13.9139048 L0.629864634,13.9139048 C0.145873503,13.9139048 -0.134438027,13.3635476 0.149195011,12.9698571 L4.07355643,7.52342857 C4.37320388,7.10771429 4.37355976,6.54616667 4.07474268,6.12997619 L0.430930044,1.05509524 C0.148246009,0.661404762 0.428676164,0.112 0.912192794,0.112 L3.48078592,0.112 C3.67853426,0.112 3.86323381,0.210809524 3.97331807,0.375452381 L6.64452206,4.3697381 L9.28737461,0.377833333 C9.39734024,0.211761905 9.58287018,0.112 9.78144889,0.112 L12.344348,0.112 C12.828695,0.112 13.1087693,0.662952381 12.8246618,1.05652381 L9.1634112,6.12545238 C8.86139124,6.54366667 8.86257749,7.1097381 9.16637683,7.5267619 L13.1303591,12.9673571 C13.4168391,13.3605714 13.1370021,13.9139048 12.6515875,13.9139048 L10.0920099,13.9139048 C9.89473603,13.9139048 9.7106296,13.8155714 9.60030809,13.6516429" id="Fill-22" fill="#A3BECC" mask="url(#mask-2)"></path>
                    </g>
                </g>
                <g id="Group-53" transform="translate(36.299335, 23.555595)" fill="#A3BECC">
                    <path d="M7.54092583,2.12227381 C6.81505776,2.12227381 6.48433049,2.68084524 6.44399789,3.15834524 L8.63785377,3.15834524 C8.62172073,2.69703571 8.3071265,2.12227381 7.54092583,2.12227381 M5.56486596,3.47405952 C5.56486596,2.34084524 6.38753226,1.42620238 7.54092583,1.42620238 C8.71045244,1.42620238 9.46063869,2.32465476 9.46063869,3.5550119 L9.46063869,3.75739286 L6.45194579,3.75739286 C6.51659656,4.34822619 6.96013647,4.83394048 7.69418969,4.83394048 C8.07319745,4.83394048 8.52492251,4.68013095 8.79906552,4.4050119 L9.18625843,4.96346429 C8.79906552,5.33572619 8.22646131,5.53013095 7.60545798,5.53013095 C6.43593137,5.53013095 5.56486596,4.7125119 5.56486596,3.47405952" id="Fill-27"></path>
                    <path d="M11.6297968,3.52259524 C11.5732125,4.06497619 11.3878012,4.44545238 11.1135396,4.68819048 L13.1784498,4.68819048 L13.1784498,2.26807143 L11.7669276,2.26807143 L11.6297968,3.52259524 Z M10.1376094,4.72878571 C10.4683367,4.64771429 10.653748,4.45342857 10.7828123,3.42557143 L11.0167414,1.52330952 L14.025197,1.52330952 L14.025197,4.68819048 L14.4528411,4.68819048 L14.4528411,6.42854762 L13.6058567,6.42854762 L13.6058567,5.43295238 L10.9845939,5.43295238 L10.9845939,6.42854762 L10.1376094,6.42854762 L10.1376094,4.72878571 Z" id="Fill-29"></path>
                    <polygon id="Fill-31" points="15.5024969 5.43294048 15.5024969 1.52329762 16.3494814 1.52329762 16.3494814 4.1540119 18.1400113 1.52329762 18.9868772 1.52329762 18.9868772 5.43294048 18.1400113 5.43294048 18.1400113 2.72936905 16.3172153 5.43294048"></polygon>
                    <polygon id="Fill-33" points="23.4114576 5.43294048 20.3464177 5.43294048 20.3464177 1.52329762 21.1934022 1.52329762 21.1934022 4.68817857 22.9839322 4.68817857 22.9839322 1.52329762 23.830798 1.52329762 23.830798 4.68817857 24.2584421 4.68817857 24.2584421 6.42853571 23.4114576 6.42853571"></polygon>
                    <polygon id="Fill-35" points="25.3083114 5.43294048 25.3083114 1.52329762 26.1551773 1.52329762 26.1551773 4.1540119 27.9457072 1.52329762 28.7926917 1.52329762 28.7926917 5.43294048 27.9457072 5.43294048 27.9457072 2.72936905 26.1229112 5.43294048"></polygon>
                    <polygon id="Fill-37" points="30.1520187 5.43294048 30.1520187 1.52329762 30.9990032 1.52329762 30.9990032 3.06127381 32.7895331 3.06127381 32.7895331 1.52329762 33.636399 1.52329762 33.636399 5.43294048 32.7895331 5.43294048 32.7895331 3.80591667 30.9990032 3.80591667 30.9990032 5.43294048"></polygon>
                    <path d="M34.7588314,3.47411905 C34.7588314,2.29233333 35.5895642,1.4262619 36.7752238,1.4262619 C37.5334766,1.4262619 37.9931496,1.75007143 38.2674112,2.12233333 L37.71094,2.64030952 C37.493144,2.33280952 37.1946828,2.179 36.8155564,2.179 C36.1057028,2.179 35.6379633,2.71316667 35.6379633,3.47411905 C35.6379633,4.23507143 36.1057028,4.77721429 36.8155564,4.77721429 C37.1946828,4.77721429 37.493144,4.61542857 37.71094,4.31590476 L38.2674112,4.834 C37.9931496,5.2062619 37.5334766,5.53019048 36.7752238,5.53019048 C35.5895642,5.53019048 34.7588314,4.664 34.7588314,3.47411905" id="Fill-39"></path>
                    <polygon id="Fill-41" points="41.8345207 5.43294048 40.6407946 3.82222619 40.1003378 4.38067857 40.1003378 5.43294048 39.253472 5.43294048 39.253472 1.52329762 40.1003378 1.52329762 40.1003378 3.40936905 41.8182691 1.52329762 42.8669165 1.52329762 41.2456649 3.29603571 42.8991826 5.43294048"></polygon>
                    <polygon id="Fill-43" points="43.7987892 5.43294048 43.7987892 1.52329762 44.6456551 1.52329762 44.6456551 4.1540119 46.436185 1.52329762 47.2831695 1.52329762 47.2831695 5.43294048 46.436185 5.43294048 46.436185 2.72936905 44.613389 5.43294048"></polygon>
                    <path d="M50.3848172,1.1104881 C49.8120943,1.1104881 49.2958371,0.83525 48.9652285,0.39822619 L49.3524214,0.0744166667 C49.5863504,0.39822619 49.9411586,0.608702381 50.3848172,0.608702381 C50.8123427,0.608702381 51.1752174,0.406321429 51.4091465,0.0744166667 L51.7962207,0.39822619 C51.4736786,0.83525 50.9654879,1.1104881 50.3848172,1.1104881 Z M48.6424491,5.4329881 L48.6424491,1.52334524 L49.4894336,1.52334524 L49.4894336,4.15394048 L51.2800822,1.52334524 L52.126948,1.52334524 L52.126948,5.4329881 L51.2800822,5.4329881 L51.2800822,2.72941667 L49.4572861,5.4329881 L48.6424491,5.4329881 Z" id="Fill-45"></path>
                    <path d="M57.192793,3.52259524 C57.1362088,4.06497619 56.9507975,4.44545238 56.6765358,4.68819048 L58.741446,4.68819048 L58.741446,2.26807143 L57.3299238,2.26807143 L57.192793,3.52259524 Z M55.7006057,4.72878571 C56.0313329,4.64771429 56.2167442,4.45342857 56.3458085,3.42557143 L56.5797376,1.52330952 L59.5881932,1.52330952 L59.5881932,4.68819048 L60.0158374,4.68819048 L60.0158374,6.42854762 L59.1688529,6.42854762 L59.1688529,5.43295238 L56.5475901,5.43295238 L56.5475901,6.42854762 L55.7006057,6.42854762 L55.7006057,4.72878571 Z" id="Fill-47"></path>
                    <path d="M63.8910642,3.47411905 C63.8910642,2.78614286 63.4878569,2.179 62.7618702,2.179 C62.0440686,2.179 61.6407427,2.78614286 61.6407427,3.47411905 C61.6407427,4.17019048 62.0440686,4.77721429 62.7618702,4.77721429 C63.4878569,4.77721429 63.8910642,4.17019048 63.8910642,3.47411905 M60.7616108,3.47411905 C60.7616108,2.35697619 61.5278114,1.4262619 62.7618702,1.4262619 C64.0121806,1.4262619 64.7701961,2.35697619 64.7701961,3.47411905 C64.7701961,4.5992381 64.0121806,5.53019048 62.7618702,5.53019048 C61.5278114,5.53019048 60.7616108,4.5992381 60.7616108,3.47411905" id="Fill-49"></path>
                    <polygon id="Fill-51" points="69.409346 5.43294048 69.409346 2.71317857 68.2478859 5.43294048 67.9092108 5.43294048 66.7395655 2.71317857 66.7395655 5.43294048 65.8926997 5.43294048 65.8926997 1.52329762 66.9976941 1.52329762 68.078489 4.04877381 69.1431509 1.52329762 70.2563305 1.52329762 70.2563305 5.43294048"></polygon>
                    <polygon id="Fill-26" points="3.59062106 5.43294048 3.59062106 2.71317857 2.42916098 5.43294048 2.09048581 5.43294048 0.920840576 2.71317857 0.920840576 5.43294048 0.0739747228 5.43294048 0.0739747228 1.52329762 1.17896918 1.52329762 2.25976408 4.04877381 3.32442594 1.52329762 4.43760554 1.52329762 4.43760554 5.43294048"></polygon>
                </g>
            </g>
        </g>
    </g>
</svg>