<svg xmlns="http://www.w3.org/2000/svg" xmlns:xlink="http://www.w3.org/1999/xlink" width="902" height="252" viewBox="0 0 902 252">
    <defs>
        <path id="a" d="M.3.94h111.36v115.937H.3z"/>
    </defs>
    <g fill="none" fill-rule="evenodd">
        <path fill="#8DC63F" d="M160 83.457H80v-75a5 5 0 0 1 5-5h70a5 5 0 0 1 5 5v75zM235 163.457h-75v-80h75a5 5 0 0 1 5 5v70a5 5 0 0 1-5 5M80 163.457H5a5 5 0 0 1-5-5v-70a5 5 0 0 1 5-5h75v80zM135 243.457H85a5 5 0 0 1-5-5v-75h80v55c0 13.807-11.193 25-25 25"/>
        <path fill="#FFF" d="M113.85 57.254L80 83.657v79.8h80v-79.8l-33.85-26.403a10 10 0 0 0-12.3 0"/>
        <path fill="#0084B6" d="M117.079 74.56l-22.08 15.896v58h50v-58L122.923 74.56a5.001 5.001 0 0 0-5.843 0"/>
        <g>
            <path fill="#0084B6" d="M423.509 83.812c0-30.004-19.203-52.567-48.728-52.567-29.523 0-48.486 22.563-48.486 52.567 0 29.764 18.963 52.567 48.486 52.567 29.525 0 48.728-22.803 48.728-52.567m-132.26 0C291.25 35.565 326.536 1 374.782 1c48.488 0 83.773 34.565 83.773 82.812s-35.285 82.812-83.773 82.812c-48.246 0-83.531-34.565-83.531-82.812M553.708 126.298V85.253c-5.041-7.682-16.083-13.202-26.404-13.202-17.283 0-29.284 13.682-29.284 33.844 0 19.924 12.001 33.606 29.284 33.606 10.321 0 21.363-5.522 26.404-13.203m0 32.446v-9.882c-9.122 11.521-21.844 17.762-35.766 17.762-29.284 0-51.367-22.083-51.367-60.729 0-37.925 21.844-60.968 51.367-60.968 13.682 0 26.644 6.001 35.766 17.763V18.641c0-8.285 6.716-15 15-15h10.725a5 5 0 0 1 5 5v150.103c0 2.761-2.24 5-5 5h-20.725a5 5 0 0 1-5-5M605.434 158.744V52.807a5 5 0 0 1 5-5h20.484a5 5 0 0 1 5 5V63.65c7.083-8.958 18.868-16.47 31.274-18.298 3.004-.442 5.692 1.922 5.692 4.958v18.748c0 2.859-2.387 5.142-5.241 4.992a59.686 59.686 0 0 0-3.16-.078c-10.082 0-23.525 5.76-28.565 13.201v61.571c0 8.284-6.715 15-15 15h-10.484a5 5 0 0 1-5-5M734.927 69.17c-18.963 0-27.123 14.163-28.564 25.683h57.128c-.72-11.04-8.401-25.683-28.564-25.683m-60.01 36.485c0-33.604 24.725-60.728 60.01-60.728 34.565 0 58.088 25.924 58.088 63.85v1.72a5 5 0 0 1-5 5h-81.172c1.92 14.642 13.682 26.883 33.364 26.883 8.29 0 19.305-3.065 27.02-8.335 2.298-1.57 5.422-1.025 6.99 1.273l7.823 11.455c1.5 2.196 1.039 5.21-1.093 6.798-11.517 8.585-27.905 13.053-44.1 13.053-35.285 0-61.93-23.763-61.93-60.969"/>
            <g transform="translate(790 46.867)">
                <mask id="b" fill="#fff">
                    <use xlink:href="#a"/>
                </mask>
                <path fill="#0084B6" d="M80.93 114.674L56.013 77.75l-25.155 36.94a5 5 0 0 1-4.133 2.186H5.31c-4.08 0-6.443-4.623-4.052-7.93l33.082-45.75a9.998 9.998 0 0 0 .01-11.705L3.633 8.862C1.25 5.557 3.613.942 7.69.942h21.653a5 5 0 0 1 4.152 2.213l22.518 33.552L78.292 3.174A5.001 5.001 0 0 1 82.457.94h21.605c4.083 0 6.444 4.628 4.049 7.934L77.247 51.454a10.001 10.001 0 0 0 .025 11.77l33.416 45.702c2.415 3.303.056 7.95-4.036 7.95H85.075a5 5 0 0 1-4.145-2.202" mask="url(#b)"/>
            </g>
        </g>
        <path fill="#0084B6" d="M336.269 243.504v-22.846l-9.791 22.846h-2.855l-9.86-22.846v22.846h-7.14v-32.841h9.316l9.11 21.214 8.976-21.214h9.384v32.84z"/>
        <g fill="#0084B6">
            <path d="M369.57 215.694c-6.12 0-8.908 4.692-9.248 8.703h18.494c-.136-3.875-2.788-8.703-9.247-8.703m-16.658 11.355c0-9.519 6.935-17.202 16.658-17.202 9.86 0 16.183 7.547 16.183 17.882v1.7H360.39c.545 4.963 4.284 9.043 10.472 9.043 3.195 0 7.003-1.292 9.314-3.603l3.264 4.691c-3.264 3.127-8.09 4.76-13.326 4.76-9.859 0-17.202-6.868-17.202-17.27M404.038 227.457c-.477 4.556-2.04 7.752-4.352 9.79h17.407V216.92h-11.899l-1.156 10.538zm-12.579 10.132c2.788-.681 4.351-2.313 5.44-10.947l1.971-15.98h25.361v26.586h3.605v14.619h-7.14v-8.363H398.6v8.363h-7.14v-14.278zM436.685 243.504v-32.841h7.14v22.098l15.094-22.098h7.139v32.84h-7.14v-22.71l-15.365 22.71zM503.356 243.504h-25.838v-32.841h7.14v26.585h15.094v-26.585h7.14v26.585h3.604v14.619h-7.14zM519.347 243.504v-32.841h7.139v22.098l15.094-22.098h7.14v32.84h-7.14v-22.71l-15.366 22.71zM560.179 243.504v-32.841h7.14v12.919h15.094v-12.92h7.139v32.842h-7.14v-13.667H567.32v13.667zM599.014 227.05c0-9.927 7.003-17.202 16.998-17.202 6.392 0 10.267 2.72 12.579 5.847l-4.691 4.35c-1.836-2.582-4.352-3.874-7.548-3.874-5.984 0-9.927 4.487-9.927 10.879 0 6.392 3.943 10.946 9.927 10.946 3.196 0 5.712-1.36 7.548-3.875l4.69 4.352c-2.311 3.127-6.186 5.848-12.578 5.848-9.995 0-16.998-7.276-16.998-17.271M658.661 243.504l-10.063-13.53-4.556 4.69v8.84h-7.139v-32.841h7.14v15.843l14.481-15.843h8.84l-13.667 14.89 13.94 17.95zM675.22 243.504v-32.841h7.139v22.098l15.094-22.098h7.14v32.84h-7.14v-22.71l-15.366 22.71zM730.74 207.195c-4.829 0-9.18-2.312-11.968-5.983l3.264-2.72c1.972 2.72 4.963 4.488 8.703 4.488 3.604 0 6.663-1.7 8.635-4.488l3.263 2.72c-2.719 3.671-7.003 5.983-11.898 5.983zm-14.689 36.31v-32.842h7.14v22.097l15.095-22.097h7.14v32.841h-7.14v-22.71l-15.366 22.71h-6.869zM788.13 227.457c-.477 4.556-2.04 7.752-4.352 9.79h17.407V216.92h-11.9l-1.155 10.538zm-12.58 10.132c2.789-.681 4.352-2.313 5.44-10.947l1.972-15.98h25.36v26.586h3.606v14.619h-7.14v-8.363H782.69v8.363h-7.14v-14.278zM844.596 227.05c0-5.78-3.4-10.88-9.52-10.88-6.05 0-9.45 5.1-9.45 10.88 0 5.847 3.4 10.946 9.45 10.946 6.12 0 9.52-5.1 9.52-10.946m-26.381 0c0-9.384 6.459-17.202 16.862-17.202 10.54 0 16.93 7.818 16.93 17.202 0 9.45-6.39 17.27-16.93 17.27-10.403 0-16.862-7.82-16.862-17.27M891.114 243.504v-22.846l-9.79 22.846h-2.856l-9.86-22.846v22.846h-7.139v-32.841h9.315l9.111 21.214 8.975-21.214h9.384v32.84z"/>
        </g>
    </g>
</svg>
