<svg xmlns="http://www.w3.org/2000/svg" width="114" height="102" viewBox="0 0 114 102">
    <g fill="none" fill-rule="evenodd">
        <path fill="#A3BECC" d="M46.36 51c0 .947.296 1.871.846 2.642l11.34 15.91a4.53 4.53 0 0 0 6.328 1.056 4.551 4.551 0 0 0 1.054-6.34L55.433 49.863V23.727a4.54 4.54 0 0 0-4.536-4.545 4.54 4.54 0 0 0-4.536 4.545V51z"/>
        <path fill="#A3BECC" fill-rule="nonzero" d="M91.171 51.473a.5.5 0 0 1 .853.364c-.445 22.515-18.766 40.572-41.231 40.572-22.777 0-41.24-18.54-41.24-41.409 0-22.87 18.463-41.41 41.24-41.41 10.728 0 20.889 4.132 28.58 11.557a4.013 4.013 0 0 0 5.691-.112 4.059 4.059 0 0 0-.112-5.721C75.766 6.444 63.607 1.5 50.792 1.5 23.57 1.5 1.5 23.661 1.5 51s22.07 49.5 49.293 49.5c26.938 0 48.878-21.719 49.286-48.734a.5.5 0 0 1 .855-.345l4.693 4.713a4.013 4.013 0 0 0 5.693 0 4.059 4.059 0 0 0 0-5.723L98.905 37.945a4.013 4.013 0 0 0-5.693 0L80.797 50.41a4.059 4.059 0 0 0 0 5.723 4.014 4.014 0 0 0 5.695-.001l4.679-4.66zm-3.972 5.367a5.013 5.013 0 0 1-7.11 0 5.059 5.059 0 0 1 0-7.134l12.414-12.467a5.013 5.013 0 0 1 7.11 0l12.415 12.467a5.059 5.059 0 0 1 0 7.134 5.013 5.013 0 0 1-7.11 0l-3.87-3.887c-1.023 27.014-23.16 48.547-50.255 48.547C23.016 101.5.5 78.89.5 51S23.016.5 50.793.5c13.074 0 25.481 5.045 34.854 14.094a5.059 5.059 0 0 1 .14 7.133 5.013 5.013 0 0 1-7.11.14C71.174 14.62 61.262 10.59 50.794 10.59c-22.224 0-40.24 18.091-40.24 40.409 0 22.318 18.016 40.41 40.24 40.41 21.5 0 39.11-16.953 40.187-38.336l-3.781 3.766z"/>
        <rect width="21" height="20" x="82" y="1" fill="#8DC63F" rx="10"/>
        <path fill="#FFF" d="M92.65 16.18c-2.865 0-4.14-2.595-4.14-5.175 0-2.58 1.275-5.16 4.14-5.16 2.85 0 4.14 2.58 4.14 5.16s-1.29 5.175-4.14 5.175zm0-1.89c1.425 0 1.965-1.44 1.965-3.285 0-1.845-.54-3.27-1.965-3.27-1.44 0-1.98 1.425-1.98 3.27s.54 3.285 1.98 3.285z"/>
    </g>
</svg>
